<?xml version="1.0" encoding="UTF-8"?> <svg xmlns="http://www.w3.org/2000/svg" width="565" height="465" viewBox="0 0 565 465" fill="none"><g opacity="0.4"><path opacity="0.4" d="M492.864 341.879C504.873 341.879 514.607 332.14 514.607 320.126C514.607 308.111 504.873 298.372 492.864 298.372C480.856 298.372 471.121 308.111 471.121 320.126C471.121 332.14 480.856 341.879 492.864 341.879Z" fill="#24326E"></path><path fill-rule="evenodd" clip-rule="evenodd" d="M498.015 328.694H499.845C500.567 328.694 501.169 329.296 501.169 330.018C501.169 330.74 500.567 331.343 499.845 331.343H499.551H496.598H492.049H487.874H486.052C486.049 331.343 486.047 331.343 486.044 331.343V331.343C485.322 331.343 484.72 330.74 484.72 330.018C484.72 329.292 485.322 328.7 486.044 328.694C486.047 328.694 486.049 328.694 486.051 328.694C486.071 328.689 486.092 328.683 486.112 328.677C486.162 328.649 486.212 328.62 486.26 328.588C486.359 328.499 486.451 328.404 486.538 328.302C486.692 328.082 486.823 327.848 486.936 327.604C487.09 327.2 487.199 326.781 487.269 326.355C487.324 325.827 487.319 325.291 487.313 324.759C487.312 324.602 487.31 324.445 487.31 324.289V322.998H486.068C485.346 322.998 484.743 322.396 484.743 321.674C484.743 320.952 485.346 320.349 486.068 320.349H487.31V319.939V316.282C487.31 315.758 487.339 315.248 487.417 314.726C487.604 313.476 488.197 312.322 489.005 311.363C489.808 310.41 490.899 309.713 492.074 309.315C492.682 309.109 493.334 309.002 493.974 308.974C494.697 308.942 495.447 309.03 496.142 309.232C496.824 309.431 497.502 309.73 498.087 310.137C498.418 310.367 498.743 310.617 499.035 310.896C499.33 311.177 499.581 311.49 499.828 311.813C500.711 312.968 501.164 314.45 501.169 315.897C501.172 316.619 500.565 317.222 499.845 317.222C499.121 317.222 498.523 316.619 498.52 315.897C498.519 315.705 498.51 315.514 498.491 315.323C498.428 314.95 498.328 314.584 498.192 314.231C498.038 313.896 497.851 313.577 497.635 313.278C497.402 312.995 497.142 312.735 496.859 312.501C496.559 312.286 496.241 312.099 495.906 311.945C495.553 311.809 495.188 311.71 494.815 311.647C494.431 311.608 494.046 311.608 493.663 311.647C493.291 311.71 492.926 311.809 492.574 311.944C492.239 312.099 491.919 312.286 491.62 312.502C491.337 312.735 491.078 312.995 490.844 313.278C490.628 313.577 490.441 313.896 490.286 314.232C490.151 314.585 490.051 314.951 489.988 315.324C489.97 315.504 489.96 315.684 489.959 315.864C489.958 316.403 489.958 316.943 489.959 317.482C489.959 317.746 489.959 318.01 489.959 318.274V320.349H492.785H495.279C496.001 320.349 496.603 320.952 496.603 321.674C496.603 322.396 496.001 322.998 495.279 322.998H493.098H489.959V325.601C489.959 326.655 489.759 327.723 489.339 328.694H493.84H498.015Z" fill="#7083D4"></path><path opacity="0.4" d="M311.866 111.831C332.611 111.831 349.428 95.0055 349.428 74.2504C349.428 53.4953 332.611 36.6699 311.866 36.6699C291.12 36.6699 274.303 53.4953 274.303 74.2504C274.303 95.0055 291.12 111.831 311.866 111.831Z" fill="#7083D4"></path><path fill-rule="evenodd" clip-rule="evenodd" d="M322.298 88.1209H325.769C327.139 88.1209 328.282 89.2637 328.282 90.6334C328.282 92.003 327.139 93.146 325.769 93.146H325.212H319.61H310.98H303.061H299.604C299.599 93.1461 299.594 93.1461 299.59 93.1461V93.146C298.22 93.146 297.077 92.003 297.077 90.6334C297.077 89.255 298.22 88.1322 299.59 88.1207C299.594 88.1207 299.598 88.1207 299.603 88.1206C299.641 88.1106 299.679 88.0998 299.718 88.0883C299.814 88.0361 299.907 87.9797 299.999 87.9197C300.187 87.7515 300.362 87.5699 300.527 87.3781C300.818 86.9607 301.067 86.5155 301.281 86.0532C301.574 85.2875 301.781 84.4923 301.913 83.6831C302.017 82.6831 302.007 81.6661 301.997 80.6568C301.994 80.3585 301.991 80.0608 301.991 79.7644V77.3158H299.638C298.268 77.3158 297.125 76.1728 297.125 74.8032C297.125 73.4335 298.268 72.2905 299.638 72.2905H301.991V71.5134V64.5762C301.991 63.5815 302.046 62.614 302.194 61.6231C302.548 59.253 303.673 57.0631 305.207 55.2435C306.73 53.4366 308.799 52.1139 311.028 51.359C312.182 50.9685 313.418 50.7653 314.632 50.7121C316.004 50.6521 317.427 50.8187 318.745 51.2021C320.04 51.5787 321.325 52.1468 322.436 52.9181C323.064 53.3545 323.68 53.8281 324.234 54.3574C324.793 54.8918 325.268 55.4845 325.737 56.0985C327.412 58.2894 328.272 61.1007 328.282 63.8457C328.286 65.2154 327.135 66.3583 325.769 66.3583C324.396 66.3583 323.261 65.2153 323.257 63.8457C323.255 63.4813 323.237 63.118 323.201 62.7559C323.081 62.0478 322.892 61.3547 322.635 60.684C322.341 60.0487 321.988 59.4445 321.578 58.877C321.135 58.3398 320.642 57.847 320.104 57.4035C319.537 56.9942 318.933 56.6409 318.298 56.3476C317.628 56.0906 316.935 55.9014 316.227 55.7818C315.5 55.7094 314.769 55.7093 314.043 55.7821C313.337 55.9014 312.645 56.0902 311.977 56.3466C311.34 56.6401 310.735 56.9943 310.167 57.4047C309.631 57.8473 309.138 58.3395 308.696 58.8758C308.285 59.444 307.931 60.0497 307.637 60.6864C307.38 61.357 307.191 62.0506 307.072 62.7588C307.037 63.0989 307.018 63.4405 307.017 63.7824C307.014 64.8055 307.015 65.8287 307.016 66.8518C307.016 67.3528 307.016 67.8539 307.016 68.3549V72.2905H312.381H317.112C318.481 72.2905 319.624 73.4335 319.624 74.8032C319.624 76.1728 318.481 77.3158 317.112 77.3158H312.974H307.016V82.2527C307.016 84.2532 306.636 86.2794 305.84 88.1209H314.379H322.298Z" fill="#24326E"></path><path opacity="0.4" d="M39.5716 208.014C55.2251 208.014 67.9147 195.318 67.9147 179.657C67.9147 163.996 55.2251 151.301 39.5716 151.301C23.9182 151.301 11.2285 163.996 11.2285 179.657C11.2285 195.318 23.9182 208.014 39.5716 208.014Z" fill="#24326E"></path><path fill-rule="evenodd" clip-rule="evenodd" d="M46.2841 190.826H48.6691C49.6102 190.826 50.3956 191.612 50.3956 192.553C50.3956 193.494 49.6102 194.279 48.669 194.279H48.2863H44.437H38.5068H33.0647H30.6893C30.6861 194.279 30.6829 194.279 30.6797 194.279V194.279C29.7385 194.279 28.9531 193.494 28.9531 192.553C28.9531 191.606 29.7386 190.834 30.6797 190.826C30.6827 190.826 30.6856 190.826 30.6885 190.826C30.715 190.819 30.7413 190.812 30.7675 190.804C30.8335 190.768 30.8978 190.729 30.9607 190.688C31.09 190.572 31.2105 190.448 31.3235 190.316C31.5239 190.029 31.6947 189.723 31.8417 189.405C32.0434 188.879 32.1854 188.333 32.2761 187.777C32.3479 187.09 32.3409 186.391 32.334 185.697C32.332 185.492 32.3299 185.288 32.3299 185.084V183.401H30.711C29.7698 183.401 28.9844 182.616 28.9844 181.675C28.9844 180.734 29.7698 179.948 30.711 179.948H32.3299V179.414V174.647C32.3299 173.964 32.3673 173.299 32.4691 172.618C32.7125 170.989 33.4858 169.485 34.5395 168.234C35.5859 166.993 37.0079 166.084 38.5397 165.565C39.3324 165.297 40.1817 165.157 41.0164 165.121C41.9586 165.079 42.9367 165.194 43.8425 165.457C44.7322 165.716 45.6153 166.106 46.3783 166.636C46.81 166.936 47.2332 167.262 47.6138 167.625C47.9981 167.993 48.3248 168.4 48.6472 168.822C49.798 170.327 50.3892 172.259 50.3957 174.145C50.3989 175.087 49.6078 175.872 48.6691 175.872C47.7254 175.872 46.9457 175.086 46.9425 174.145C46.9416 173.895 46.9289 173.645 46.904 173.397C46.8218 172.91 46.6918 172.434 46.5151 171.973C46.3135 171.536 46.0706 171.121 45.7892 170.731C45.4844 170.362 45.1457 170.023 44.7765 169.719C44.3867 169.437 43.9717 169.195 43.5354 168.993C43.0747 168.816 42.5986 168.686 42.1122 168.604C41.6128 168.554 41.1104 168.554 40.6111 168.604C40.126 168.686 39.6509 168.816 39.1914 168.992C38.7542 169.194 38.3382 169.437 37.9479 169.719C37.5793 170.023 37.2411 170.362 36.937 170.73C36.6548 171.121 36.4113 171.537 36.2096 171.974C36.0329 172.435 35.9029 172.912 35.821 173.398C35.7972 173.632 35.7838 173.867 35.7831 174.102C35.7811 174.805 35.7817 175.508 35.7824 176.211C35.7827 176.555 35.783 176.9 35.783 177.244V179.948H39.4676H42.7183C43.6595 179.948 44.4449 180.734 44.4449 181.675C44.4449 182.616 43.6595 183.401 42.7183 183.401H39.8753H35.783V186.794C35.783 188.169 35.5218 189.561 34.9743 190.826H40.842H46.2841Z" fill="#7083D4"></path><path opacity="0.4" d="M95.112 275.083C103.884 275.083 110.995 267.968 110.995 259.192C110.995 250.415 103.884 243.301 95.112 243.301C86.3398 243.301 79.2285 250.415 79.2285 259.192C79.2285 267.968 86.3398 275.083 95.112 275.083Z" fill="#7083D4"></path><path fill-rule="evenodd" clip-rule="evenodd" d="M99.2125 265.836H100.65C101.217 265.836 101.69 266.31 101.69 266.877C101.69 267.444 101.217 267.917 100.65 267.917H100.419H98.0994H94.5257H91.2462H89.8147C89.8128 267.917 89.8109 267.917 89.809 267.917V267.917C89.2418 267.917 88.7686 267.444 88.7686 266.877C88.7686 266.306 89.2419 265.841 89.809 265.836C89.8108 265.836 89.8126 265.836 89.8143 265.836C89.8303 265.832 89.8461 265.828 89.8619 265.823C89.9017 265.801 89.9405 265.778 89.9783 265.753C90.0563 265.683 90.1289 265.608 90.197 265.529C90.3178 265.356 90.4207 265.172 90.5093 264.98C90.6308 264.663 90.7164 264.334 90.771 263.999C90.8143 263.585 90.8101 263.164 90.8059 262.746C90.8047 262.622 90.8035 262.499 90.8035 262.376V261.362H89.8293C89.2621 261.362 88.7888 260.889 88.7888 260.322C88.7888 259.755 89.2621 259.281 89.8293 259.281H90.8035V258.959V256.087C90.8035 255.675 90.826 255.274 90.8873 254.864C91.034 253.882 91.5 252.976 92.135 252.222C92.7655 251.474 93.6225 250.926 94.5456 250.614C95.0232 250.452 95.5351 250.368 96.038 250.346C96.6058 250.321 97.1953 250.39 97.7411 250.549C98.2772 250.705 98.8095 250.94 99.2692 251.259C99.5294 251.44 99.7844 251.636 100.014 251.855C100.245 252.077 100.442 252.322 100.637 252.576C101.33 253.483 101.686 254.648 101.69 255.784C101.692 256.351 101.215 256.825 100.65 256.825C100.081 256.825 99.6112 256.351 99.6092 255.784C99.6087 255.633 99.601 255.483 99.586 255.333C99.5365 255.04 99.4581 254.753 99.3517 254.475C99.2302 254.212 99.0838 253.962 98.9142 253.727C98.7305 253.504 98.5265 253.3 98.304 253.117C98.0691 252.947 97.819 252.801 97.556 252.679C97.2784 252.573 96.9915 252.495 96.6984 252.445C96.3975 252.415 96.0947 252.415 95.7938 252.445C95.5015 252.495 95.2152 252.573 94.9383 252.679C94.6748 252.8 94.4241 252.947 94.1889 253.117C93.9668 253.3 93.763 253.504 93.5797 253.726C93.4097 253.962 93.263 254.212 93.1414 254.476C93.0349 254.754 92.9566 255.041 92.9072 255.334C92.8929 255.475 92.8848 255.616 92.8844 255.758C92.8832 256.182 92.8836 256.605 92.884 257.029C92.8842 257.237 92.8843 257.444 92.8843 257.651V259.281H95.1062H97.0651C97.6322 259.281 98.1055 259.755 98.1055 260.322C98.1055 260.889 97.6322 261.362 97.0651 261.362H95.3519H92.8843V263.406C92.8843 264.235 92.727 265.074 92.397 265.836H95.933H99.2125Z" fill="#24326E"></path><path opacity="0.4" d="M485.597 198.148C496.708 198.148 505.715 189.137 505.715 178.021C505.715 166.905 496.708 157.894 485.597 157.894C474.487 157.894 465.479 166.905 465.479 178.021C465.479 189.137 474.487 198.148 485.597 198.148Z" fill="#7083D4"></path><path fill-rule="evenodd" clip-rule="evenodd" d="M490.791 186.437H492.611C493.329 186.437 493.929 187.036 493.929 187.755C493.929 188.473 493.329 189.073 492.611 189.073H492.319H489.381H484.854H480.701H478.887C478.885 189.073 478.883 189.073 478.88 189.073V189.073C478.162 189.073 477.562 188.473 477.562 187.755C477.562 187.032 478.162 186.443 478.88 186.437C478.883 186.437 478.885 186.437 478.887 186.437C478.907 186.432 478.927 186.426 478.947 186.42C478.998 186.393 479.047 186.363 479.095 186.332C479.194 186.243 479.285 186.148 479.372 186.048C479.525 185.829 479.655 185.595 479.767 185.353C479.921 184.951 480.03 184.534 480.099 184.11C480.154 183.585 480.148 183.052 480.143 182.522C480.141 182.366 480.14 182.21 480.14 182.054V180.77H478.904C478.186 180.77 477.586 180.171 477.586 179.452C477.586 178.734 478.186 178.134 478.904 178.134H480.14V177.727V174.088C480.14 173.567 480.168 173.059 480.246 172.539C480.432 171.296 481.022 170.148 481.826 169.193C482.625 168.246 483.71 167.552 484.88 167.156C485.485 166.951 486.133 166.845 486.77 166.817C487.489 166.785 488.236 166.873 488.927 167.074C489.606 167.271 490.28 167.569 490.863 167.974C491.192 168.203 491.515 168.451 491.806 168.729C492.099 169.009 492.348 169.32 492.594 169.642C493.473 170.791 493.924 172.265 493.929 173.705C493.931 174.424 493.328 175.023 492.611 175.023C491.891 175.023 491.296 174.423 491.293 173.705C491.292 173.514 491.283 173.324 491.264 173.134C491.201 172.762 491.102 172.399 490.967 172.047C490.813 171.714 490.628 171.397 490.413 171.099C490.18 170.817 489.922 170.559 489.64 170.326C489.342 170.112 489.026 169.926 488.693 169.773C488.341 169.638 487.978 169.539 487.606 169.476C487.225 169.438 486.842 169.438 486.461 169.476C486.09 169.539 485.728 169.638 485.377 169.772C485.043 169.926 484.726 170.112 484.428 170.327C484.147 170.559 483.888 170.817 483.656 171.099C483.441 171.397 483.255 171.714 483.101 172.048C482.966 172.4 482.867 172.764 482.804 173.135C482.786 173.313 482.776 173.493 482.776 173.672C482.774 174.209 482.775 174.745 482.775 175.282C482.775 175.545 482.776 175.807 482.776 176.07V178.134H485.588H488.069C488.787 178.134 489.387 178.734 489.387 179.452C489.387 180.171 488.787 180.77 488.069 180.77H485.899H482.776V183.359C482.776 184.409 482.576 185.471 482.158 186.437H486.637H490.791Z" fill="#24326E"></path></g><path d="M263.887 411.087C379.603 424.981 488.665 411.087 490.69 381.018C490.69 369.332 394.587 359.858 276.038 359.858C157.488 359.858 57.9141 369.332 57.9141 381.018C57.9141 392.704 164.951 399.208 263.887 411.087Z" fill="#262F63"></path><path d="M229.929 296.374L302.516 338.251L443.503 233.558L479.797 255.892L532.841 209.827" stroke="white" stroke-width="6"></path><circle cx="299.922" cy="336.684" r="4.82454" fill="white" stroke="white" stroke-width="0.606933"></circle><circle cx="442.306" cy="232.686" r="4.82454" fill="white" stroke="white" stroke-width="0.606933"></circle><circle cx="478.6" cy="255.024" r="4.82454" fill="white" stroke="white" stroke-width="0.606933"></circle><circle cx="534.434" cy="207.562" r="4.82454" fill="white" stroke="white" stroke-width="0.606933"></circle><circle cx="227.335" cy="294.801" r="4.82454" fill="white" stroke="white" stroke-width="0.606933"></circle><rect x="25.9385" y="310.593" width="8.14904" height="57.8152" stroke="white"></rect><rect x="40.3154" y="332.813" width="8.14904" height="35.5962" stroke="white"></rect><rect x="54.6924" y="301.442" width="8.14904" height="66.9643" stroke="white"></rect><rect x="69.0684" y="287.064" width="8.14904" height="81.3413" stroke="white"></rect><path d="M261.275 372.62C261.275 372.62 249.365 377.641 222.593 379.752C207.937 380.894 188.822 381.155 164.766 379.226C96.7706 384.685 68.2556 372.62 68.2556 372.62C15.5172 318.768 77.0453 203.384 99.0197 175.902C109.178 163.207 124.021 158.024 137.053 156.114C146.243 154.796 155.573 154.788 164.766 156.089C173.96 154.788 183.292 154.796 192.483 156.114C199.413 157.128 206.859 159.067 213.833 162.582C220.293 165.756 225.984 170.302 230.506 175.902C252.486 203.384 314.014 318.768 261.275 372.62Z" fill="url(#paint0_linear_2637_2)"></path><path d="M217.139 88.0737C217.139 88.0737 211.681 61.9559 166.533 84.6589C121.384 107.362 206.913 102.22 206.913 102.22C206.913 102.22 217.695 95.6983 217.139 88.0737Z" fill="#E8A341"></path><path d="M128.776 129.132C128.776 129.132 98.5063 95.6464 115.025 80.7898C127.982 69.1487 165.487 84.2368 181.069 91.2638C187.785 94.3333 195.079 95.9382 202.465 95.9714C209.726 95.9714 217.021 94.5286 217.159 88.7573C217.159 88.7573 217.652 114.26 198.825 129.137C179.998 144.013 128.776 129.132 128.776 129.132Z" fill="url(#paint1_linear_2637_2)"></path><path d="M163.627 134.764C163.627 134.764 186.284 127.076 193.241 111.83C193.241 111.83 192.962 126.52 182.11 132.34C171.257 138.161 163.627 134.764 163.627 134.764Z" fill="#E8A341"></path><path d="M199.261 128.919H129.131C125.536 128.919 122.622 131.76 122.622 135.264V136.242C122.622 139.746 125.536 142.587 129.131 142.587H199.261C202.856 142.587 205.77 139.746 205.77 136.242V135.264C205.77 131.76 202.856 128.919 199.261 128.919Z" fill="#262F63"></path><path d="M106.676 363.556C106.676 363.556 167.943 396.872 222.855 363.556C222.855 363.556 165.212 373.606 106.676 363.556Z" fill="#E8A341"></path><path d="M129.455 102.72C129.455 102.72 133.555 125.507 149.957 128.917C149.957 128.917 131.919 112.819 129.455 102.72Z" fill="#E8A341"></path><path d="M78.9812 267.877C78.9812 267.877 71.4434 312.909 103.26 324.828C103.26 324.828 77.3056 292.485 78.9812 267.877Z" fill="#E8A341"></path><path opacity="0.34" d="M159.641 275.852C181.973 275.852 200.076 257.749 200.076 235.417C200.076 213.086 181.973 194.982 159.641 194.982C137.309 194.982 119.206 213.086 119.206 235.417C119.206 257.749 137.309 275.852 159.641 275.852Z" fill="#0A0A0A"></path><path d="M199.264 142.582H129.128C125.535 142.582 122.622 145.387 122.622 148.847C122.622 152.306 125.535 155.111 129.128 155.111H199.264C202.857 155.111 205.77 152.306 205.77 148.847C205.77 145.387 202.857 142.582 199.264 142.582Z" fill="#262F63"></path><path d="M164.765 271.295C187.411 271.295 205.77 252.937 205.77 230.291C205.77 207.644 187.411 189.286 164.765 189.286C142.119 189.286 123.761 207.644 123.761 230.291C123.761 252.937 142.119 271.295 164.765 271.295Z" fill="#EBF2FC"></path><path fill-rule="evenodd" clip-rule="evenodd" d="M174.854 247.72H178.589C180.063 247.72 181.293 248.949 181.293 250.423C181.293 251.897 180.063 253.127 178.589 253.127H177.99H171.962H162.676H154.154H150.434C150.429 253.127 150.424 253.127 150.419 253.127V253.127C148.946 253.127 147.716 251.897 147.716 250.423C147.716 248.94 148.946 247.732 150.419 247.719C150.424 247.719 150.429 247.719 150.433 247.719C150.475 247.708 150.516 247.697 150.557 247.684C150.66 247.628 150.761 247.568 150.859 247.503C151.062 247.322 151.251 247.127 151.428 246.92C151.741 246.471 152.009 245.992 152.239 245.495C152.555 244.671 152.777 243.815 152.919 242.944C153.032 241.868 153.021 240.774 153.01 239.688C153.007 239.367 153.004 239.047 153.004 238.728V236.092H150.484C149.01 236.092 147.78 234.862 147.78 233.388C147.78 231.914 149.01 230.684 150.484 230.684H153.004V229.85V222.385C153.004 221.315 153.062 220.274 153.222 219.207C153.603 216.657 154.813 214.301 156.464 212.343C158.102 210.399 160.329 208.975 162.727 208.163C163.969 207.743 165.299 207.524 166.606 207.467C168.081 207.402 169.613 207.582 171.031 207.994C172.424 208.399 173.807 209.011 175.002 209.841C175.678 210.31 176.341 210.82 176.937 211.389C177.538 211.964 178.05 212.602 178.555 213.263C180.357 215.62 181.283 218.645 181.293 221.599C181.298 223.073 180.059 224.303 178.589 224.303C177.111 224.303 175.89 223.073 175.885 221.599C175.884 221.207 175.864 220.816 175.825 220.426C175.696 219.664 175.493 218.919 175.216 218.197C174.9 217.513 174.52 216.863 174.079 216.253C173.602 215.674 173.072 215.144 172.494 214.667C171.883 214.227 171.233 213.846 170.55 213.531C169.829 213.254 169.083 213.051 168.322 212.922C167.54 212.844 166.753 212.844 165.971 212.922C165.211 213.051 164.467 213.254 163.748 213.53C163.063 213.846 162.412 214.227 161.801 214.668C161.224 215.145 160.694 215.674 160.218 216.251C159.776 216.863 159.395 217.514 159.079 218.199C158.802 218.921 158.599 219.667 158.47 220.429C158.433 220.795 158.412 221.163 158.411 221.531C158.408 222.632 158.409 223.733 158.41 224.834C158.41 225.373 158.411 225.912 158.411 226.451V230.684H164.196H169.286C170.76 230.684 171.99 231.914 171.99 233.388C171.99 234.862 170.76 236.092 169.286 236.092H164.834H158.411V241.405C158.411 243.558 158.002 245.738 157.144 247.72H166.333H174.854Z" fill="#262F63"></path><path opacity="0.4" d="M370.135 371.963H236.729C231.283 371.97 226.057 369.99 222.202 366.458C218.347 362.926 216.178 358.132 216.174 353.131V344.702L231.574 184.891C231.574 174.512 222.822 172.241 222.822 172.241L338.978 172.241C356.192 172.241 370.147 185.055 370.147 200.861L370.135 371.963Z" fill="black"></path><path d="M385.991 389.609H252.738C247.298 389.617 242.078 387.461 238.228 383.617C234.377 379.773 232.211 374.555 232.206 369.113V359.939L232.107 186.009C232.107 174.712 223.364 172.241 223.364 172.241H354.87C372.065 172.241 386.004 186.187 386.004 203.39L385.991 389.609Z" fill="url(#paint2_linear_2637_2)"></path><path d="M344.965 273.076H255.647V278.853H344.965V273.076Z" fill="#5982BE"></path><path d="M344.965 261.299H255.647V267.076H344.965V261.299Z" fill="#5982BE"></path><path d="M344.965 284.854H255.647V290.631H344.965V284.854Z" fill="#5982BE"></path><path d="M427.368 345.911H265.418C265.418 345.911 268.618 361.498 263.371 378.165C260.764 386.446 249.917 389.424 249.917 389.424L402.104 389.615C416.058 389.615 427.37 378.299 427.372 364.339L427.368 345.911Z" fill="#5982BE"></path><path d="M261.757 247.844H275.299V252.163H256.387V226.481H261.757V247.844ZM289.974 226.092C292.516 226.092 294.708 226.624 296.55 227.687C298.391 228.751 299.805 230.269 300.791 232.24C301.803 234.212 302.309 236.572 302.309 239.322C302.309 242.072 301.803 244.433 300.791 246.404C299.805 248.376 298.391 249.893 296.55 250.957C294.708 252.02 292.516 252.552 289.974 252.552C287.431 252.552 285.226 252.02 283.358 250.957C281.517 249.893 280.09 248.376 279.078 246.404C278.092 244.433 277.599 242.072 277.599 239.322C277.599 236.572 278.092 234.212 279.078 232.24C280.09 230.269 281.517 228.751 283.358 227.687C285.226 226.624 287.431 226.092 289.974 226.092ZM289.974 230.489C288.521 230.489 287.289 230.826 286.277 231.501C285.265 232.175 284.487 233.174 283.942 234.497C283.423 235.794 283.164 237.402 283.164 239.322C283.164 241.216 283.423 242.824 283.942 244.147C284.487 245.47 285.265 246.469 286.277 247.143C287.289 247.818 288.521 248.155 289.974 248.155C291.4 248.155 292.62 247.818 293.631 247.143C294.643 246.469 295.408 245.47 295.927 244.147C296.472 242.824 296.744 241.216 296.744 239.322C296.744 237.402 296.472 235.794 295.927 234.497C295.408 233.174 294.643 232.175 293.631 231.501C292.62 230.826 291.4 230.489 289.974 230.489ZM329.072 252.163H323.508L321.368 245.898H311.523L309.383 252.163H303.896L313.274 226.481H319.694L329.072 252.163ZM312.729 241.929H320.161L316.426 230.722L312.729 241.929ZM354.945 226.481V252.163H348.797L339.808 237.065L337.59 232.863H337.551L337.707 237.299V252.163H332.882V226.481H338.991L347.98 241.54L350.198 245.781H350.275L350.12 241.346V226.481H354.945Z" fill="#5982BE"></path><path d="M256.586 301.335L258.322 303.976L260.059 301.335H261.853L259.241 304.91L261.897 308.631H260.044L258.22 305.888L256.338 308.631H254.557L257.301 304.954L254.703 301.335H256.586ZM264.472 301.335L266.209 303.976L267.945 301.335H269.74L267.128 304.91L269.784 308.631H267.931L266.107 305.888L264.224 308.631H262.444L265.187 304.954L262.59 301.335H264.472ZM272.359 301.335L274.095 303.976L275.832 301.335H277.627L275.015 304.91L277.67 308.631H275.817L273.993 305.888L272.111 308.631H270.331L273.074 304.954L270.477 301.335H272.359ZM280.246 301.335L281.982 303.976L283.719 301.335H285.513L282.901 304.91L285.557 308.631H283.704L281.88 305.888L279.998 308.631H278.217L280.961 304.954L278.363 301.335H280.246ZM256.586 316.335L258.322 318.976L260.059 316.335H261.853L259.241 319.91L261.897 323.631H260.044L258.22 320.888L256.338 323.631H254.557L257.301 319.954L254.703 316.335H256.586ZM264.472 316.335L266.209 318.976L267.945 316.335H269.74L267.128 319.91L269.784 323.631H267.931L266.107 320.888L264.224 323.631H262.444L265.187 319.954L262.59 316.335H264.472ZM272.359 316.335L274.095 318.976L275.832 316.335H277.627L275.015 319.91L277.67 323.631H275.817L273.993 320.888L272.111 323.631H270.331L273.074 319.954L270.477 316.335H272.359Z" fill="#5982BE"></path><path opacity="0.34" d="M386 210C386.108 208.884 386 211 386 212.428L375.97 217L365.094 212.428C355.282 208.295 349 199.327 349 189.46V172C372.719 174.328 380.047 177.379 380.047 177.379L370.63 185.033C374.71 191.73 378.165 206.721 378.165 206.721L386 207.998V210Z" fill="#0A0A0A"></path><path d="M397.601 204.026L384.5 209L371.399 204.026C359.573 199.536 352 184.496 352 173.783V138.171C361.727 141.993 372.708 140.581 381.177 134.421L384.5 132L387.823 134.421C396.292 140.581 407.273 141.993 417 138.171V173.783C417 184.496 409.424 199.536 397.601 204.026Z" fill="white"></path><path d="M377.294 186C376.301 186.002 375.339 185.656 374.575 185.024L364.451 176.669C362.717 175.149 362.508 172.528 363.981 170.755C365.454 168.981 368.075 168.697 369.896 170.113L376.827 175.847L398.532 151.44C399.541 150.3 401.083 149.783 402.577 150.084C404.072 150.386 405.292 151.459 405.778 152.901C406.263 154.342 405.941 155.932 404.932 157.073L380.49 184.554C379.683 185.473 378.518 185.999 377.294 186Z" fill="#61B2A9"></path><defs><linearGradient id="paint0_linear_2637_2" x1="164.765" y1="301.192" x2="110.454" y2="169.22" gradientUnits="userSpaceOnUse"><stop stop-color="#E9A342"></stop><stop offset="1" stop-color="#F3BF75"></stop></linearGradient><linearGradient id="paint1_linear_2637_2" x1="167.954" y1="116.366" x2="166.239" y2="97.1268" gradientUnits="userSpaceOnUse"><stop stop-color="#E8A341"></stop><stop offset="0.98" stop-color="#F3BF75"></stop></linearGradient><linearGradient id="paint2_linear_2637_2" x1="304.684" y1="172.241" x2="304.684" y2="389.609" gradientUnits="userSpaceOnUse"><stop stop-color="#F3FAFC"></stop><stop offset="1" stop-color="#DDE5FC"></stop></linearGradient></defs></svg> 